<svg xmlns="http://www.w3.org/2000/svg" width="865.905" height="625.387" viewBox="0 0 865.905 625.387"><g transform="translate(-247.609 -192.917)"><circle cx="180.245" cy="180.245" r="180.245" transform="translate(305.152 192.917)" fill="#f2f2f2"/><path d="M117.224,291.558s13.045-.4,16.976-3.2,20.066-6.142,21.042-1.653,19.6,22.33,4.876,22.449-34.221-2.294-38.145-4.684S117.224,291.558,117.224,291.558Z" transform="translate(193.195 64.121)" fill="#a8a8a8"/><path d="M160.381,308.868c-14.728.119-34.221-2.294-38.145-4.684-2.988-1.82-4.179-8.352-4.577-11.365-.276.012-.436.017-.436.017s.826,10.521,4.75,12.911,23.417,4.8,38.145,4.684c4.251-.034,5.72-1.547,5.639-3.787C165.167,308,163.546,308.843,160.381,308.868Z" transform="translate(193.195 62.843)" opacity="0.2"/><ellipse cx="158.244" cy="21.528" rx="158.244" ry="21.528" transform="translate(247.609 530.611)" fill="#3f3d56"/><ellipse cx="132.857" cy="18.074" rx="132.857" ry="18.074" transform="translate(272.996 534.065)" opacity="0.1"/><ellipse cx="203.111" cy="27.632" rx="203.111" ry="27.632" transform="translate(707.292 763.041)" fill="#3f3d56"/><ellipse cx="179.26" cy="24.387" rx="179.26" ry="24.387" transform="translate(306.66 761.757)" fill="#3f3d56"/><path d="M494,701.094C558.594,717.6,682.757,679.562,696.393,636.5" transform="translate(147.98 64.818)" fill="none" stroke="#2f2e41" stroke-miterlimit="10" stroke-width="2"/><path d="M341,359.074s120.728-33.1,128.157,73.548S369.789,569.6,453.37,590.749" transform="translate(158.783 53.401)" fill="none" stroke="#2f2e41" stroke-miterlimit="10" stroke-width="2"/><path d="M215.4,637.87s41.2-11.409,43.736,25.354-33.911,47.222-5.388,54.511" transform="translate(137.023 34.163)" fill="none" stroke="#2f2e41" stroke-miterlimit="10" stroke-width="2"/><path d="M801.879,662.885l-5.654,36.1s-27.834,14.787-8.263,15.222,111.771,0,111.771,0,17.831,0-10.438-15.657l-5.654-37.837Z" transform="translate(66.966 57.984)" fill="#2f2e41"/><path d="M784.027,713.812c4.445-3.955,12.2-8.076,12.2-8.076l5.654-36.1,81.762.077L889.3,705.3c6.592,3.651,10.676,6.45,13.065,8.6,3.631-.828,7.6-3.907-13.065-15.351l-5.654-37.837-81.762,2.174-5.654,36.1S772.839,711.409,784.027,713.812Z" transform="translate(66.964 57.984)" opacity="0.1"/><rect width="368.365" height="256.595" rx="18.046" transform="translate(725.108 469.275)" fill="#2f2e41"/><rect width="343.576" height="192.229" transform="translate(737.503 482.975)" fill="#3f3d56"/><ellipse cx="2.175" cy="2.175" rx="2.175" ry="2.175" transform="translate(907.116 474.712)" fill="#f2f2f2"/><path d="M978.189,621.322v22.493a12.95,12.95,0,0,1-12.953,12.952H622.775a12.95,12.95,0,0,1-12.952-12.953V621.322Z" transform="translate(115.284 69.103)" fill="#2f2e41"/><path d="M876.948,661.308v4.349H642.968v-3.479l.322-.87,5.767-15.657H872.164Z" transform="translate(128.458 134.365)" fill="#2f2e41"/><path d="M1099.991,756.144c-.426,1.822-2.035,3.745-5.671,5.563-13.047,6.523-39.576-1.74-39.576-1.74s-20.441-3.479-20.441-12.612a16.312,16.312,0,0,1,1.792-1.065c5.485-2.9,23.673-10.063,55.922.3a13.45,13.45,0,0,1,6.13,4.017C1099.454,752.139,1100.478,754.079,1099.991,756.144Z" transform="translate(-4.543 35.271)" fill="#2f2e41"/><path d="M1100.7,756.144c-15.97,6.119-30.2,6.576-44.813-3.571-7.367-5.115-14.061-6.38-19.084-6.284,5.485-2.9,23.673-10.063,55.922.3a13.45,13.45,0,0,1,6.13,4.017C1100.158,752.139,1101.183,754.079,1100.7,756.144Z" transform="translate(-5.248 35.271)" opacity="0.1"/><ellipse cx="5.654" cy="1.74" rx="5.654" ry="1.74" transform="translate(1069.771 784.365)" fill="#f2f2f2"/><ellipse cx="8.263" cy="8.263" rx="8.263" ry="8.263" transform="translate(901.027 699.993)" fill="#f2f2f2"/><path d="M876.948,667.466v4.349H642.968v-3.479l.322-.87Z" transform="translate(128.458 128.207)" opacity="0.1"/><rect width="176.014" height="204.786" transform="translate(329.693 327.467)" fill="#2f2e41"/><rect width="211.556" height="72.775" transform="translate(311.922 307.158)" fill="#3f3d56"/><rect width="211.556" height="72.775" transform="translate(311.922 393.472)" fill="#3f3d56"/><rect width="211.556" height="72.775" transform="translate(311.922 479.787)" fill="#3f3d56"/><rect width="13.54" height="13.54" transform="translate(467.627 319.851)" fill="#4968c8" opacity="0.4"/><rect width="13.54" height="13.54" transform="translate(487.09 319.851)" fill="#617bed" opacity="0.8"/><rect width="13.54" height="13.54" transform="translate(506.554 319.851)" fill="#7f96fc"/><rect width="13.54" height="13.54" transform="translate(467.627 405.319)" fill="#4968c8" opacity="0.4"/><rect width="13.54" height="13.54" transform="translate(487.09 405.319)" fill="#617bed" opacity="0.8"/><rect width="13.54" height="13.54" transform="translate(506.554 405.319)" fill="#7f96fc"/><rect width="13.54" height="13.54" transform="translate(467.627 490.788)" fill="#4968c8" opacity="0.4"/><rect width="13.54" height="13.54" transform="translate(487.09 490.788)" fill="#617bed" opacity="0.8"/><rect width="13.54" height="13.54" transform="translate(506.554 490.788)" fill="#7f96fc"/><circle cx="83.303" cy="83.303" r="83.303" transform="translate(408.943 589.485)" fill="#2f2e41"/><rect width="25.307" height="45.342" transform="translate(454.285 738.165)" fill="#2f2e41"/><rect width="25.307" height="45.342" transform="translate(504.9 738.165)" fill="#2f2e41"/><ellipse cx="21.089" cy="7.909" rx="21.089" ry="7.909" transform="translate(454.285 776.126)" fill="#2f2e41"/><ellipse cx="21.089" cy="7.909" rx="21.089" ry="7.909" transform="translate(504.9 775.072)" fill="#2f2e41"/><circle cx="28.471" cy="28.471" r="28.471" transform="translate(465.885 623.228)" fill="#fff"/><circle cx="9.49" cy="9.49" r="9.49" transform="translate(484.865 642.208)" fill="#3f3d56"/><path d="M271.431,568.629c-6.726-30.124,14.775-60.562,48.025-67.987s65.657,10.977,72.383,41.1S376.529,582.977,343.28,590.4,278.157,598.753,271.431,568.629Z" transform="translate(140.008 26.689)" fill="#7f96fc"/><ellipse cx="41.652" cy="13.076" rx="41.652" ry="13.076" transform="translate(521.794 648.518) rotate(-23.171)" fill="#2f2e41"/><ellipse cx="41.652" cy="13.076" rx="41.652" ry="13.076" transform="translate(365.733 704.405) rotate(-23.171)" fill="#2f2e41"/><path d="M398.63,661.8c0,8.153-20.993,24.253-44.288,24.253S309,671.005,309,662.852s22.047-6.327,45.342-6.327S398.63,653.645,398.63,661.8Z" transform="translate(142.121 35.243)" fill="#fff"/></g></svg>