<svg xmlns="http://www.w3.org/2000/svg" xmlns:xlink="http://www.w3.org/1999/xlink" width="231.134" height="147.391" viewBox="0 0 231.134 147.391"><defs><filter id="a" x="11.787" y="0" width="204.353" height="127.397" filterUnits="userSpaceOnUse"><feOffset dy="-2" input="SourceAlpha"/><feGaussianBlur stdDeviation="3.5" result="b"/><feFlood flood-color="#173180" flood-opacity="0.325"/><feComposite operator="in" in2="b"/><feComposite in="SourceGraphic"/></filter><filter id="c" x="0" y="101.962" width="231.134" height="45.429" filterUnits="userSpaceOnUse"><feOffset dy="3" input="SourceAlpha"/><feGaussianBlur stdDeviation="5" result="d"/><feFlood flood-color="#173180" flood-opacity="0.333"/><feComposite operator="in" in2="d"/><feComposite in="SourceGraphic"/></filter><clipPath id="e"><rect width="45.924" height="42.458" fill="none"/></clipPath></defs><g transform="translate(-410.484 -1959.5)"><g transform="matrix(1, 0, 0, 1, 410.48, 1959.5)" filter="url(#a)"><path d="M575.123,231.659H401.337a4.783,4.783,0,0,0-4.783,4.783v96.83a4.783,4.783,0,0,0,4.783,4.783H575.123a4.783,4.783,0,0,0,4.783-4.783v-96.83A4.783,4.783,0,0,0,575.123,231.659Z" transform="translate(-374.27 -219.16)" fill="#5a699a"/></g><rect width="170.527" height="96.195" transform="translate(438.929 1980.529)" fill="#fff"/><circle cx="1.749" cy="1.749" r="1.749" transform="translate(522.553 1974.332)" fill="#fff"/><g transform="matrix(1, 0, 0, 1, 410.48, 1959.5)" filter="url(#c)"><path d="M565.17,606.39H548.528v-1.2a.238.238,0,0,0-.238-.238h-5.706a.238.238,0,0,0-.238.238v1.2H538.78v-1.2a.238.238,0,0,0-.238-.238h-5.706a.238.238,0,0,0-.238.238h0v1.2h-3.566v-1.2a.238.238,0,0,0-.238-.238h-5.706a.238.238,0,0,0-.238.238h0v1.2h-3.566v-1.2a.238.238,0,0,0-.238-.238h-5.706a.238.238,0,0,0-.238.238v1.2h-3.566v-1.2a.238.238,0,0,0-.238-.238h-5.706a.238.238,0,0,0-.238.238h0v1.2H499.79v-1.2a.238.238,0,0,0-.238-.238h-5.706a.238.238,0,0,0-.238.238h0v1.2h-3.566v-1.2a.238.238,0,0,0-.238-.238h-44.7a.238.238,0,0,0-.238.238h0v1.2H441.3v-1.2a.238.238,0,0,0-.238-.238H435.36a.238.238,0,0,0-.238.238h0v1.2h-3.566v-1.2a.238.238,0,0,0-.238-.238h-5.706a.238.238,0,0,0-.238.238h0v1.2h-3.566v-1.2a.238.238,0,0,0-.238-.238h-5.706a.238.238,0,0,0-.238.238h0v1.2h-3.566v-1.2a.238.238,0,0,0-.238-.238h-5.706a.238.238,0,0,0-.238.238h0v1.2h-3.566v-1.2a.238.238,0,0,0-.238-.238H396.37a.238.238,0,0,0-.238.238v1.2h-3.566v-1.2a.238.238,0,0,0-.238-.238h-5.706a.238.238,0,0,0-.238.238h0v1.2H375.448a5.706,5.706,0,0,0-5.706,5.706v2.58a5.706,5.706,0,0,0,5.706,5.706H565.17a5.706,5.706,0,0,0,5.706-5.706V612.1a5.706,5.706,0,0,0-5.706-5.706Z" transform="translate(-354.74 -490.99)" fill="#5a699a"/></g><g transform="translate(461.861 1992.265)"><g transform="translate(0 0)"><rect width="57" height="57" rx="3" transform="translate(0.139 15.735)" fill="#7f96fc"/><rect width="124" height="11" rx="3" transform="translate(0.139 -0.265)" fill="#e6e6e6"/><rect width="57" height="57" rx="3" transform="translate(67.139 15.735)" fill="#e6e6e6"/></g><g transform="translate(71.949 22.924)" clip-path="url(#e)"><g transform="translate(-768.5 -2542)"><path d="M0,0H53" transform="translate(768.5 2542.5)" fill="none" stroke="#fff" stroke-width="2"/></g><g transform="translate(-768.5 -2534)"><path d="M0,0H53" transform="translate(768.5 2542.5)" fill="none" stroke="#fff" stroke-width="2"/></g><g transform="translate(-768.5 -2526)"><path d="M0,0H53" transform="translate(768.5 2542.5)" fill="none" stroke="#fff" stroke-width="2"/></g><g transform="translate(-768.5 -2518)"><path d="M0,0H53" transform="translate(768.5 2542.5)" fill="none" stroke="#fff" stroke-width="2"/></g><g transform="translate(-768.5 -2510)"><path d="M0,0H53" transform="translate(768.5 2542.5)" fill="none" stroke="#fff" stroke-width="2"/></g><g transform="translate(-768.5 -2502)"><path d="M0,0H53" transform="translate(768.5 2542.5)" fill="none" stroke="#fff" stroke-width="2"/></g></g><rect width="113" height="3" rx="1.5" transform="translate(6.139 3.735)" fill="#fff"/></g></g></svg>