<svg xmlns="http://www.w3.org/2000/svg" width="100.52" height="30.36" viewBox="0 0 100.52 30.36"><path d="M17.56-6.8A6.57,6.57,0,0,1,15.7-1.7,7.643,7.643,0,0,1,10.36,0H4.68V-3.04h6.08a3.328,3.328,0,0,0,2.4-.88,2.828,2.828,0,0,0,.92-2.12V-10.2a2.92,2.92,0,0,0-.62-1.94,2.289,2.289,0,0,0-1.86-.74H10.4a6.283,6.283,0,0,1-4.68-1.74A6.9,6.9,0,0,1,4-19.68V-21.2a6.57,6.57,0,0,1,1.86-5.1A7.643,7.643,0,0,1,11.2-28h5.72v3.04H10.8a3.328,3.328,0,0,0-2.4.88,2.828,2.828,0,0,0-.92,2.12v3.04a2.831,2.831,0,0,0,.8,2.06,2.777,2.777,0,0,0,2.08.82h1.2a5.85,5.85,0,0,1,4.42,1.64,6.9,6.9,0,0,1,1.58,4.96ZM37.04-.72A9.139,9.139,0,0,1,33.2,0H31.6a7.643,7.643,0,0,1-5.34-1.7A6.57,6.57,0,0,1,24.4-6.8V-21.2a6.57,6.57,0,0,1,1.86-5.1A7.643,7.643,0,0,1,31.6-28h1.6a7.643,7.643,0,0,1,5.34,1.7,6.57,6.57,0,0,1,1.86,5.1V-6.8a7.838,7.838,0,0,1-.92,3.96L42.4.08,40.12,2.36Zm-.12-21.24A2.828,2.828,0,0,0,36-24.08a3.328,3.328,0,0,0-2.4-.88H31.2a3.328,3.328,0,0,0-2.4.88,2.828,2.828,0,0,0-.92,2.12V-6.04a2.828,2.828,0,0,0,.92,2.12,3.328,3.328,0,0,0,2.4.88h2.4A3.328,3.328,0,0,0,36-3.92a2.828,2.828,0,0,0,.92-2.12ZM51.28-28V-3.04H60.2V0H47.8V-28ZM81.48,0a2.515,2.515,0,0,1-1.14-.32,3.2,3.2,0,0,1-1.06-.88A2.923,2.923,0,0,1,76.84,0H73.28a6.583,6.583,0,0,1-4.42-1.22Q67.48-2.44,67.48-5.4v-.8q0-6.2,5.84-6.2h4.96v-2a2.443,2.443,0,0,0-.76-1.92A3.261,3.261,0,0,0,75.28-17h-6.2v-3h5.8q3.48,0,5.14,1.52t1.66,4.88V-4a1,1,0,0,0,.46.9,2.943,2.943,0,0,0,1.54.3V0ZM76.44-3q1.2,0,1.52-.56A2.879,2.879,0,0,0,78.28-5V-9.4h-5a2.331,2.331,0,0,0-1.72.68A2.331,2.331,0,0,0,70.88-7v2a2.079,2.079,0,0,0,.48,1.52A2.079,2.079,0,0,0,72.88-3Zm28.08-3.4q0,3.36-1.66,4.88T97.72,0H89.88V-28h3.4v8.8a5.294,5.294,0,0,1,3-.8h1.44q3.52,0,5.16,1.5t1.64,4.9ZM95.88-17a2.529,2.529,0,0,0-1.96.7,2.192,2.192,0,0,0-.64,1.5V-3h4.84a3.261,3.261,0,0,0,2.24-.68,2.443,2.443,0,0,0,.76-1.92v-8.8a2.443,2.443,0,0,0-.76-1.92A3.261,3.261,0,0,0,98.12-17Z" transform="translate(-4 28)" fill="#252545"/></svg>