<svg xmlns="http://www.w3.org/2000/svg" width="146" height="146" viewBox="0 0 146 146"><g transform="translate(-209 -4476)"><circle cx="73" cy="73" r="73" transform="translate(209 4476)" fill="#fff"/><g transform="translate(3.347 -6.936)"><circle cx="20.181" cy="20.181" r="20.181" transform="translate(260.356 4519.337)" fill="#ffb8b8"/><path d="M357.944,659.218s1.715-3.011,1.316-13.071,14.92-4.37,27.72-5.33,10.091,16.795,10.091,16.795.923-1.055,2.9-9.624-2.512-17.108-2.512-17.108c-1.322-9-8.447-6.118-8.447-6.118,3.431,1.336,2.772,4.192,2.772,4.192-2.9-5.092-10.03-2.207-10.03-2.207-9.5-5.963-19.134,1.89-19.134,1.89-11.48,2.605-4.747,11.735-4.747,11.735C346.328,646.206,357.944,659.218,357.944,659.218Z" transform="translate(-96.5 3886.614)" fill="#2f2e41"/><path d="M410.712,700.269a112.488,112.488,0,0,0-17.946-7.552l-.79-8.73-32.006-3.448L355.9,691.7l-11.486,4.31a5.609,5.609,0,0,0-1.166.607h-.012a11.342,11.342,0,0,0-5.269,1.821,11.666,11.666,0,0,0-2.816,2.526c1.554,1.178,3.168,2.271,4.832,3.315l.073.036c.474.291.959.583,1.444.862.875.522,1.773,1.02,2.672,1.493l.571.291c1.311.68,2.647,1.323,4.019,1.918.279.121.583.243.862.364.024.012.036.012.06.024.644.267,1.287.522,1.943.765a63.854,63.854,0,0,0,6.581,2.113,67.677,67.677,0,0,0,17.448,2.283c2.15,0,4.274-.1,6.375-.3a67.394,67.394,0,0,0,14.133-2.853c.011,0,.025-.012.036-.012a66.323,66.323,0,0,0,8.487-3.363c.011-.012.036-.012.049-.024.619-.291,1.214-.607,1.821-.911l.292-.146c.486-.255.972-.51,1.458-.777,1.214-.668,2.4-1.372,3.581-2.125.328-.194.644-.4.972-.619.461-.3.922-.619,1.372-.947C413.1,701.617,411.926,700.924,410.712,700.269Z" transform="translate(-96.5 3886.614)" fill="#617bed"/></g></g></svg>