<svg xmlns="http://www.w3.org/2000/svg" width="146" height="146" viewBox="0 0 146 146"><g transform="translate(-681 -4476)"><circle cx="73" cy="73" r="73" transform="translate(681 4476)" fill="#fff"/><g transform="translate(0.258 -4.419)"><path d="M866.745,693.165l-.8-8.832-32.421-3.493-4.1,11.3L817.785,696.5a5.688,5.688,0,0,0-1.2.613,11.758,11.758,0,0,0-6.345,2.578c.265.219.53.43.8.64.055.055.119.1.174.146.741.576,1.5,1.143,2.267,1.682.2.146.4.293.613.43a60.851,60.851,0,0,0,5.23,3.319q2.578,1.467,5.294,2.706a65.474,65.474,0,0,0,10.3,3.7q.741.206,1.481.384c.859.21,1.728.411,2.6.576q2.633.549,5.33.859a65.351,65.351,0,0,0,7.963.475q2.729,0,5.4-.21A66.6,66.6,0,0,0,867,712.987c.11-.027.22-.046.329-.082a65.833,65.833,0,0,0,13.6-4.736c.667-.32,1.335-.649,1.993-.987q2.428-1.248,4.718-2.688c.549-.338,1.088-.686,1.628-1.051C880.98,697.864,868.939,693.869,866.745,693.165Z" transform="translate(-96.5 3886.614)" fill="#617bed"/><circle cx="23.346" cy="23.346" r="23.346" transform="translate(728.626 4515.169)" fill="#a0616a"/><path d="M832.8,640.527c2.417,2.86,6.506,3.667,10.279,3.995,7.662.672,18.8-.418,26.292-2.146.538,5.18-.922,10.765,2.128,15.026a69.76,69.76,0,0,0,2.478-15.814,15.145,15.145,0,0,0-.876-6.773A6.229,6.229,0,0,0,867.8,630.9a1.947,1.947,0,0,0,.427-2.037,6.622,6.622,0,0,0-5.02-4.974l-8.4-2.026s-7.886-3.459-13.778-3.025c-2.735.2-5.594.586-7.81,2.171s-3.5,4.734-2.12,7.06a10.252,10.252,0,0,0-7.812,6.2,16.548,16.548,0,0,0-.593,7.955,56.39,56.39,0,0,0,2.956,12.508Z" transform="translate(-96.5 3886.614)" fill="#2f2e41"/></g></g></svg>