<svg xmlns="http://www.w3.org/2000/svg" width="678.674" height="529.184" viewBox="0 0 678.674 529.184"><g transform="translate(0 -80.491)"><ellipse cx="22.582" cy="8.468" rx="22.582" ry="8.468" transform="translate(130.088 591.806)" fill="#2f2e41"/><ellipse cx="22.582" cy="8.468" rx="22.582" ry="8.468" transform="translate(184.283 590.677)" fill="#2f2e41"/><ellipse cx="44.598" cy="14.001" rx="44.598" ry="14.001" transform="translate(226.182 463.297) rotate(-29.962)" fill="#2f2e41"/><circle cx="89.197" cy="89.197" r="89.197" transform="translate(68.402 554.909) rotate(-80.783)" fill="#2f2e41"/><rect width="27.098" height="48.55" transform="translate(130.088 551.159)" fill="#2f2e41"/><rect width="27.098" height="48.55" transform="translate(184.283 551.159)" fill="#2f2e41"/><circle cx="30.485" cy="30.485" r="30.485" transform="translate(142.508 428.09)" fill="#fff"/><circle cx="10.162" cy="10.162" r="10.162" transform="translate(162.831 448.413)" fill="#3f3d56"/><path d="M379.842,554.454c-7.2-32.255,15.821-64.847,51.423-72.8s70.3,11.754,77.5,44.009-16.393,44.151-51.995,52.1S387.044,586.709,379.842,554.454Z" transform="translate(-295.631 -156.248)" fill="#e6e6e6"/><ellipse cx="14.001" cy="44.598" rx="14.001" ry="44.598" transform="translate(23.976 433.306) rotate(-64.626)" fill="#2f2e41"/><path d="M399.782,577.081c0,8.73,22.478,25.969,47.421,25.969s48.329-24.578,48.329-33.308-23.387,1.694-48.329,1.694S399.782,568.351,399.782,577.081Z" transform="translate(-272.861 -63.746)" fill="#fff"/><ellipse cx="22.582" cy="8.468" rx="22.582" ry="8.468" transform="translate(459.175 591.806)" fill="#2f2e41"/><ellipse cx="22.582" cy="8.468" rx="22.582" ry="8.468" transform="translate(404.98 590.677)" fill="#2f2e41"/><ellipse cx="14.001" cy="44.598" rx="14.001" ry="44.598" transform="translate(316.97 443.004) rotate(-60.038)" fill="#2f2e41"/><circle cx="89.197" cy="89.197" r="89.197" transform="translate(374.495 391.959)" fill="#2f2e41"/><rect width="27.098" height="48.55" transform="translate(477.24 551.159)" fill="#2f2e41"/><rect width="27.098" height="48.55" transform="translate(423.045 551.159)" fill="#2f2e41"/><circle cx="30.485" cy="30.485" r="30.485" transform="translate(412.308 428.09)" fill="#fff"/><ellipse cx="10.191" cy="10.119" rx="10.191" ry="10.119" transform="translate(413.93 454.471) rotate(-44.974)" fill="#3f3d56"/><path d="M594.577,577.766c-35.6-7.95-59.2-19.846-51.995-52.1s41.9-51.958,77.5-44.009,58.625,40.542,51.423,72.8S630.179,585.716,594.577,577.766Z" transform="translate(-121.294 -156.248)" fill="#7f96fc"/><ellipse cx="14.001" cy="44.598" rx="14.001" ry="44.598" transform="matrix(0.966, -0.257, 0.257, 0.966, 520.532, 466.539)" fill="#2f2e41"/><path d="M569.039,571.436c-16.376,0-31.729-10.424-31.729-1.694s15.354,33.308,31.729,33.308,31.133-17.239,31.133-25.969S585.414,571.436,569.039,571.436Z" transform="translate(-125.555 -63.745)" fill="#fff"/><path d="M540.57,615.265h-7.921A26.8,26.8,0,0,1,505.884,588.5v-6.65c0-16.472,3.121-30.264,9.276-40.992a215.63,215.63,0,0,1,25.976-34.9A153.819,153.819,0,0,0,558.8,484.668a35.81,35.81,0,0,0,5.578-19.8c0-16.523-10.765-24.556-32.911-24.556a133.641,133.641,0,0,0-36.276,5.445,30.539,30.539,0,0,1-38.921-29.365V402.925a29.955,29.955,0,0,1,17.671-27.455,161.718,161.718,0,0,1,65.882-12.961c23.7,0,45.1,3.982,63.6,11.832,18.532,7.869,33.173,18.965,43.516,32.98a79.431,79.431,0,0,1,15.608,48.141c0,18.6-5.078,34.8-15.091,48.146-9.9,13.213-24.1,27.679-42.2,43A300.7,300.7,0,0,0,578.2,572.093a47.052,47.052,0,0,0-11.249,20.941,26.692,26.692,0,0,1-26.377,22.23Z" transform="translate(-212.359 -282)" fill="#7f96fc"/><path d="M521.04,596.619h-1.045a49.605,49.605,0,1,1,0-99.211h1.045a49.605,49.605,0,0,1,0,99.211Z" transform="translate(-197.233 -137.49)" fill="#7f96fc"/><path d="M984.684,620.142H340.571a2.071,2.071,0,1,1,0-4.142H984.684a2.071,2.071,0,0,1,0,4.142Z" transform="translate(-338.5 -10.466)" fill="#ccc"/><circle cx="13.394" cy="13.394" r="13.394" transform="translate(651.887 279.756)" fill="#f2f2f2"/><circle cx="13.394" cy="13.394" r="13.394" transform="translate(113.4 232.121)" fill="#f2f2f2"/></g></svg>