<svg xmlns="http://www.w3.org/2000/svg" xmlns:xlink="http://www.w3.org/1999/xlink" width="231.027" height="156.365" viewBox="0 0 231.027 156.365"><defs><filter id="a" x="0" y="0" width="231.027" height="156.365" filterUnits="userSpaceOnUse"><feOffset input="SourceAlpha"/><feGaussianBlur stdDeviation="5" result="b"/><feFlood flood-color="#173180" flood-opacity="0.129"/><feComposite operator="in" in2="b"/><feComposite in="SourceGraphic"/></filter></defs><g transform="translate(-415.591 -1645.779)"><path d="M459.584,504.274l-22.2,9.5a5.007,5.007,0,0,1-6.565-2.631L418.57,482.5a5.007,5.007,0,0,1,2.631-6.565l22.2-9.5a5.007,5.007,0,0,1,6.565,2.631l12.253,28.64A5.007,5.007,0,0,1,459.584,504.274Z" transform="translate(36.789 1215.946)" fill="#f2f2f2"/><path d="M583.493,451.264l-22.2,9.5a5.007,5.007,0,0,1-6.565-2.631l-12.253-28.64a5.007,5.007,0,0,1,2.631-6.565l22.2-9.5a5.007,5.007,0,0,1,6.565,2.631l12.253,28.64a5.007,5.007,0,0,1-2.631,6.565Z" transform="translate(-50.81 1253.512)" fill="#f2f2f2"/><g transform="matrix(1, 0, 0, 1, 415.59, 1645.78)" filter="url(#a)"><path d="M533.886,520.393H342.7a4.927,4.927,0,0,1-4.922-4.92V397.633a3.61,3.61,0,0,1,3.606-3.6H535.14a3.672,3.672,0,0,1,3.669,3.667V515.472A4.927,4.927,0,0,1,533.886,520.393Z" transform="translate(-322.78 -379.03)" fill="#e6e6e6"/></g><path d="M543.983,537.013H366.009a4.59,4.59,0,0,1-4.731-4.423V430.218a3.4,3.4,0,0,1,3.506-3.281H545.15a3.459,3.459,0,0,1,3.564,3.335V532.59A4.59,4.59,0,0,1,543.983,537.013Z" transform="translate(76.999 1243.13)" fill="#fff"/><path d="M538.577,390.785H337.55v-2.546a4.984,4.984,0,0,1,4.94-5.016H533.637a4.984,4.984,0,0,1,4.94,5.016Z" transform="translate(92.971 1274.281)" fill="#173180"/><circle cx="1.298" cy="1.298" r="1.298" transform="translate(438.345 1659.994)" fill="#fff"/><circle cx="1.298" cy="1.298" r="1.298" transform="translate(443.273 1659.994)" fill="#fff"/><circle cx="1.298" cy="1.298" r="1.298" transform="translate(448.201 1659.994)" fill="#fff"/><g transform="translate(464.894 1686.604)"><g transform="translate(0 0)"><rect width="105.637" height="17.621" rx="8.81" transform="translate(26.687 0.223)" fill="#e6e6e6"/><circle cx="9" cy="9" r="9" transform="translate(0.106 0.396)" fill="#7f96fc"/></g><g transform="translate(0 29.633)"><rect width="105.637" height="17.621" rx="8.81" transform="translate(26.687 0.515)" fill="#e6e6e6"/><circle cx="9" cy="9" r="9" transform="translate(0.106 -0.236)" fill="#7f96fc"/></g><g transform="translate(0 60.073)"><rect width="105.637" height="17.621" rx="8.81" transform="translate(26.687 0)" fill="#e6e6e6"/><circle cx="9" cy="9" r="9" transform="translate(0.106 0.323)" fill="#7f96fc"/></g></g></g></svg>