<svg xmlns="http://www.w3.org/2000/svg" width="146" height="146" viewBox="0 0 146 146"><g transform="translate(-431 -4476)"><circle cx="73" cy="73" r="73" transform="translate(431 4476)" fill="#fff"/><g transform="translate(1.388 -10.861)"><path d="M627.988,696l-12.15-1.1-7.27-5.31a.041.041,0,0,0-.009-.028l-.019.009-.291-.216-.038.338-12.271,4.719L583.332,691.5l-4.362,4.719-19.428,6.445a9.872,9.872,0,0,0-2.43,2.3v.012c.816.638,1.654,1.268,2.5,1.864a64.476,64.476,0,0,0,5.995,3.846,67.54,67.54,0,0,0,16,6.576q.76.211,1.52.394c.882.216,1.773.422,2.664.591q2.7.563,5.469.882a67.047,67.047,0,0,0,8.171.488q2.8,0,5.544-.216a68.342,68.342,0,0,0,9.55-1.454c.113-.028.225-.047.338-.084A67.547,67.547,0,0,0,628.831,713c.685-.328,1.37-.666,2.045-1.013q2.491-1.281,4.841-2.758c1.182-.732,2.336-1.51,3.462-2.317.694-.5,1.379-1,2.054-1.529l-.073-.155A16.163,16.163,0,0,0,627.988,696Z" transform="translate(-96.5 3886.614)" fill="#617bed"/><path d="M616.382,635.363a22.346,22.346,0,0,0-4.756-3.593c-10.742-5.929-22.477-6.032-32.2-.291a30.3,30.3,0,0,0-6.557,5.207,30.681,30.681,0,0,0-8.528,21.145v23.378h61.146v-25.77C625.491,648.534,621.692,640.541,616.382,635.363Z" transform="translate(-96.5 3886.614)" fill="#2f2e41"/><circle cx="22.084" cy="22.084" r="22.084" transform="translate(475.126 4523.016)" fill="#ffb8b8"/><path d="M616.363,638.44a2.731,2.731,0,0,0-1.548-2.2c-13.818-6.454-27.834-6.285-41.634.507h-.253l-.085.347c-2.72,20.957-2.336,21.417-2.167,21.6a2.729,2.729,0,0,0,.966.7,2.647,2.647,0,0,0,1.079.225h31.5l.075-.357a51.461,51.461,0,0,1,1.407-5.554,61.659,61.659,0,0,1,3.462,5.685l.131.225h6.126a2.176,2.176,0,0,0,.347-.028,2.628,2.628,0,0,0,1.642-.854C617.583,658.562,617.977,658.131,616.363,638.44Z" transform="translate(-96.5 3886.614)" fill="#2f2e41"/></g></g></svg>